<?xml version="1.0" encoding="UTF-8"?><svg id="Layer_1" xmlns="http://www.w3.org/2000/svg" viewBox="0 0 83.9722 82.4443"><polygon points="22.3057 7.5474 12.3233 5.1577 2.7227 15.8589 14.7115 19.9663 22.3057 7.5474" fill="none"/><polygon points="2.483 17.3389 37.0166 71.7432 14.521 21.4951 2.483 17.3389" fill="none"/><polygon points="37.4952 68.543 37.4952 21.5894 16.4312 21.6377 37.4952 68.543" fill="none"/><polygon points="73.0337 18.9634 82.0611 15.9058 72.3169 5.1118 65.9146 6.5913 73.0337 18.9634" fill="none"/><polygon points="37.3995 20.1572 37.3995 7.6431 24.2173 7.6431 16.7173 20.1572 37.3995 20.1572" fill="none"/><polygon points="37.4488 6.209 37.4488 1.3389 26.9873 1.1943 14.521 4.0605 23.691 6.209 37.4488 6.209" fill="none"/><polygon points="73.1294 20.4443 60.0406 51.4922 82.107 17.3389 73.1294 20.4443" fill="none"/><polygon points="47.0972 21.5894 47.0972 59.8037 64.148 21.6377 47.0972 21.5894" fill="none"/><polygon points="70.1177 4.0605 63.3355 2.5322 64.8648 5.3018 70.1177 4.0605" fill="none"/><polygon points="57.4615 10.127 47.1431 10.0791 47.1431 20.2056 63.9566 20.1572 57.4615 10.127" fill="none"/><path d="m72.0298,3.1533l-13.7558-3.1533H25.6968l-13.7554,3.1533L0,16.4316l41.9859,66.0127L83.9722,16.4316s-11.9424-13.2783-11.9424-13.2783ZM26.9873,1.1943l10.4615.1446v4.8701h-13.7578l-9.17-2.1485s12.4663-2.8662,12.4663-2.8662Zm10.4122,6.4488v12.5141h-20.6822l7.5-12.5141s13.1822,0,13.1822,0Zm-25.0762-2.4854l9.9824,2.3897-7.5942,12.4189L2.7227,15.8589S12.3233,5.1577,12.3233,5.1577ZM2.483,17.3389l12.038,4.1562,22.4956,50.2481L2.483,17.3389Zm35.0122,51.2041L16.4312,21.6377l21.064-.0483v46.9536ZM72.3169,5.1118l9.7442,10.794-9.0274,3.0576-7.1191-12.3721,6.4023-1.4795Zm-2.1992-1.0513l-5.2529,1.2413-1.5293-2.7696,6.7822,1.5283Zm-22.9746,6.0186l10.3184.0479,6.4951,10.0302-16.8135.0484v-10.1265Zm-.0459,11.5103l17.0508.0483-17.0508,38.166s0-38.2143,0-38.2143Zm26.0322-1.1451l8.9776-3.1054-22.0664,34.1533s13.0888-31.0479,13.0888-31.0479Z" fill="#fff"/></svg>