<?xml version="1.0" encoding="UTF-8"?>
<svg width="1200pt" height="1200pt" version="1.1" viewBox="0 0 1200 1200" xmlns="http://www.w3.org/2000/svg">
 <path d="m1170 600c0-314.4-255.6-570-570-570s-570 255.6-570 570 255.6 570 570 570 570-255.6 570-570zm-1058.4 0c0-268.8 219.6-488.4 488.4-488.4s488.4 219.6 488.4 488.4-219.6 488.4-488.4 488.4-488.4-219.6-488.4-488.4z" fill="#2f2f2f"/>
 <path d="m762 628.8c7.1992-7.1992 12-18 12-28.801s-4.8008-21.602-12-28.801l-219.6-219.6c-15.602-15.602-42-15.602-57.602 0-15.602 15.602-15.602 42 0 57.602l189.6 190.8-189.6 189.6c-8.3984 8.3984-12 18-12 28.801 0 10.801 3.6016 21.602 12 28.801 15.602 15.602 42 15.602 57.602 0z" fill="#2f2f2f"/>
</svg>
